<svg xmlns="http://www.w3.org/2000/svg" viewBox="0 0 250 250"><defs><style>.cls-1{isolation:isolate;}.cls-2{fill:#e96030;}.cls-3{opacity:0.56;}.cls-4,.cls-6{fill:#404041;}.cls-4{opacity:0.55;mix-blend-mode:multiply;}.cls-12,.cls-5{fill:#fff;}.cls-7{fill:#cfcfff;}.cls-10,.cls-11,.cls-13,.cls-8,.cls-9{fill:none;}.cls-8,.cls-9{stroke:#e96030;}.cls-11,.cls-12,.cls-13,.cls-8,.cls-9{stroke-linecap:round;stroke-linejoin:round;}.cls-9{stroke-dasharray:5;}.cls-10{stroke:#404041;stroke-miterlimit:10;stroke-width:2px;}.cls-11,.cls-12,.cls-13{stroke:#000;}.cls-11,.cls-12{stroke-width:3px;}.cls-13{stroke-width:4px;}</style></defs><title>Artboard 1 copy 3</title><g class="cls-1"><g id="OBJECTS"><path class="cls-2" d="M21.43,76.42C24.5,97.36,7.27,105,4.07,126.26c-3.36,22.32,10.48,48.27,30.57,59.58,15.51,8.74,31.56,7,42.3,5.78h0c9.66-1.54,18.12,3.08,22.57,5.85,14.91,9.27,23.78,22,32.12,26.29,27.4,14.16,105.15-33.22,103.55-88.22-.65-22.35-14.17-38.38-27.34-54-27.26-32.32-60.67-43.07-92-53.15-4.9-1.58-31.57-9.22-57.95-5.82a46.74,46.74,0,0,0-7.16,1.59c-14.89,4.39-32.67,16.47-34.8,31.59C14.72,64.41,19.84,65.54,21.43,76.42Z"/><g class="cls-3"><rect class="cls-4" x="36.44" y="66.73" width="172.52" height="115.97" rx="7.56" ry="7.56"/></g><rect class="cls-5" x="39.94" y="62.21" width="172.52" height="115.97" rx="7.56" ry="7.56"/><path class="cls-6" d="M204.9,62.21H47.5a7.56,7.56,0,0,0-7.56,7.56v6.62H212.46V69.77A7.55,7.55,0,0,0,204.9,62.21Z"/><path class="cls-7" d="M190.27,69.56a2.18,2.18,0,1,1-2.18-2.18A2.18,2.18,0,0,1,190.27,69.56Z"/><path class="cls-7" d="M199.16,69.56A2.18,2.18,0,1,1,197,67.38,2.19,2.19,0,0,1,199.16,69.56Z"/><path class="cls-7" d="M208,69.56a2.18,2.18,0,1,1-2.18-2.18A2.18,2.18,0,0,1,208,69.56Z"/><rect class="cls-6" x="160.42" y="93.1" width="16.36" height="2.93"/><rect class="cls-6" x="160.42" y="99.99" width="16.36" height="2.93"/><rect class="cls-6" x="160.42" y="106.88" width="16.36" height="2.93"/><rect class="cls-6" x="160.42" y="113.77" width="16.36" height="2.93"/><rect class="cls-6" x="160.42" y="128.25" width="16.36" height="2.93"/><rect class="cls-6" x="160.42" y="135.15" width="16.36" height="2.93"/><rect class="cls-6" x="160.42" y="142.04" width="16.36" height="2.93"/><rect class="cls-6" x="160.42" y="148.93" width="16.36" height="2.93"/><rect class="cls-6" x="185.91" y="116.72" width="16.36" height="2.93"/><rect class="cls-6" x="185.91" y="123.61" width="16.36" height="2.93"/><rect class="cls-6" x="185.91" y="130.5" width="16.36" height="2.93"/><rect class="cls-6" x="185.91" y="137.39" width="16.36" height="2.93"/><rect class="cls-6" x="185.91" y="147.57" width="16.36" height="2.93"/><rect class="cls-6" x="185.91" y="154.46" width="16.36" height="2.93"/><rect class="cls-6" x="185.91" y="161.35" width="16.36" height="2.93"/><rect class="cls-6" x="185.91" y="168.24" width="16.36" height="2.93"/><rect class="cls-6" x="185.91" y="84.42" width="16.36" height="2.93"/><rect class="cls-6" x="185.91" y="91.31" width="16.36" height="2.93"/><rect class="cls-6" x="185.91" y="98.2" width="16.36" height="2.93"/><rect class="cls-6" x="185.91" y="105.09" width="16.36" height="2.93"/><rect class="cls-8" x="155.21" y="87.05" width="26.77" height="35.37" rx="12" ry="12"/><rect class="cls-8" x="180.14" y="142.75" width="26.77" height="32.84" rx="12" ry="12"/><path class="cls-9" d="M177.31,159.41c-13.93,2.35-19.51-.67-22.06-3.63-7.3-8.48,2.27-25.57-4.71-30.86-3.18-2.42-8.17-1.14-11.33,0"/><line class="cls-9" x1="152.75" y1="105.26" x2="139.21" y2="116.36"/><path class="cls-6" d="M136.24,100.94H76.35L69.9,92.18l55.66,0c.81,0,1.61,0,2.42,0a13.51,13.51,0,0,1,3.56.19,6.14,6.14,0,0,1,1.08.31,5.93,5.93,0,0,1,2.62,2.17,7.27,7.27,0,0,1,1,3.89,7.84,7.84,0,0,1,0,1Z"/><path class="cls-2" d="M81.38,119.86c.08-.29.2-.55.55-.55s.48.27.56.55l2.09,7.32c.07.26-.22.54-.52.54a.65.65,0,0,1-.59-.54l-.4-1.3h-2.3l-.41,1.3c-.08.26-.25.54-.58.54s-.6-.28-.52-.54Zm.56,2h0l-.85,2.93h1.7Z"/><line class="cls-8" x1="88.62" y1="121.49" x2="94.82" y2="121.49"/><line class="cls-8" x1="88.62" y1="126.38" x2="94.82" y2="126.38"/><line class="cls-8" x1="78.9" y1="131.01" x2="95.56" y2="131.01"/><line class="cls-8" x1="78.9" y1="136.03" x2="98.01" y2="136.03"/><line class="cls-8" x1="78.9" y1="140.72" x2="102.42" y2="140.72"/><rect class="cls-10" x="52.08" y="91.39" width="84.96" height="59.11" rx="8.92" ry="8.92"/><circle class="cls-11" cx="115.39" cy="123.69" r="17.12"/><path class="cls-8" d="M106.8,115.3a12.52,12.52,0,0,1,16.79,0"/><path class="cls-8" d="M126,118.58a7.16,7.16,0,0,1,.92,2.17,7.38,7.38,0,0,1,.14,2.56"/><path class="cls-12" d="M150.8,160.16c-2.17,2.22-9.81-1.83-12.88-3.76a41.85,41.85,0,0,1-8.83-7.86,76.35,76.35,0,0,1-7.14-9,18.39,18.39,0,0,0,9-8.25,50.54,50.54,0,0,1,15.87,16.16C148.14,149.66,153.08,157.82,150.8,160.16Z"/><path class="cls-13" d="M137.69,155.65c1.28-1.08,2.78-2.42,4.4-4s2.94-3,4-4.28"/></g></g></svg>