<svg xmlns="http://www.w3.org/2000/svg" viewBox="0 0 250 250"><defs><style>.cls-1{isolation:isolate;}.cls-2,.cls-6{fill:#e96030;}.cls-3,.cls-4{opacity:0.55;mix-blend-mode:multiply;}.cls-4,.cls-7{fill:#404041;}.cls-5,.cls-8{fill:#fff;}.cls-5,.cls-6,.cls-7,.cls-8,.cls-9{fill-rule:evenodd;}.cls-8{stroke:#404041;stroke-miterlimit:10;}.cls-9{fill:#fdf3f5;}</style></defs><title>Artboard 1</title><g class="cls-1"><g id="OBJECTS"><path class="cls-2" d="M50,39.58C44.37,50.38,46.19,57.51,45,67c-1.51,11.62-2.88,19.78-12.7,26.18-16.06,10.45-51.64,41.36-13.23,74,13.77,11.69,33.47,12.8,50.53,11.09,14.53-1.45,26,9.45,36.57,16.95,13,9.2,27.5,17.47,42.72,23.08,31.34,11.54,53.46,3.23,73.25-16.65,6-6,15-15.91,16.77-37,2.41-28.47-14.52-51-44.5-69.29-6.86-4.18-14.37-7.2-21.44-11A107,107,0,0,1,152.47,70C138,57,126.84,39.9,110,30.14a61.36,61.36,0,0,0-29.45-8.2C67.66,21.71,56,28.18,50,39.58Z"/><g class="cls-3"><path class="cls-4" d="M182.4,187.93H63a21.13,21.13,0,0,1-20.2-18.47V77.94A7.32,7.32,0,0,1,45,72a6.9,6.9,0,0,1,4.21-1.71H182.4c3.53,0,6.4,3.43,6.4,7.67V180.26C188.8,184.5,185.93,187.93,182.4,187.93Z"/></g><path class="cls-5" d="M53,90.58v77.53a8.59,8.59,0,0,0,8.58,8.57H183.1a8.57,8.57,0,0,0,8.57-8.57V112.46a30.47,30.47,0,0,1-9.41.58,3.57,3.57,0,0,1-.95,1.72l-.05,0a3.48,3.48,0,0,1-2.43,1H65.89a3.52,3.52,0,0,1-3.52-3.51V101.17a3.53,3.53,0,0,1,3.52-3.52H158.6a30.68,30.68,0,0,1-2.89-7.07ZM64,121.73h4.32a.46.46,0,0,1,.46.46.47.47,0,0,1-.46.46H64a.46.46,0,0,1-.46-.46.45.45,0,0,1,.46-.46ZM67.1,130H93.91a4.75,4.75,0,0,1,4.73,4.73v27a4.75,4.75,0,0,1-4.73,4.72H67.1a4.74,4.74,0,0,1-3.34-1.38l0-.05a4.72,4.72,0,0,1-1.35-3.29v-27A4.75,4.75,0,0,1,67.1,130Zm5.12-7.39a.47.47,0,0,1-.46-.46.46.46,0,0,1,.46-.46h40.19a.47.47,0,0,1,.47.46.47.47,0,0,1-.47.46Zm44.14,0a.47.47,0,0,1-.46-.46.46.46,0,0,1,.46-.46h34.88a.45.45,0,0,1,.46.46.46.46,0,0,1-.46.46Zm38.83,0a.46.46,0,0,1-.46-.46.45.45,0,0,1,.46-.46h25.58a.46.46,0,0,1,.46.46.47.47,0,0,1-.46.46Zm-30.58,34.51a.47.47,0,0,1,0-.93h23.63a.47.47,0,1,1,0,.93ZM108.18,139H166a.46.46,0,1,1,0,.92H108.18a.46.46,0,0,1,0-.92Zm14.72,8.62h57.87a.47.47,0,0,1,0,.93H122.9a.47.47,0,0,1,0-.93Zm29.29,9.56a.47.47,0,0,1,0-.93h28.58a.47.47,0,0,1,0,.93ZM115,148.07a.46.46,0,0,1,.46-.47H119a.47.47,0,0,1,0,.93h-3.52a.46.46,0,0,1-.46-.46Zm21.69-17.72h44.11a.47.47,0,0,1,0,.93H136.66a.47.47,0,0,1,0-.93Zm33.24,9.55a.46.46,0,0,1,0-.92h10.87a.46.46,0,0,1,0,.92Zm-61.72-8.62a.47.47,0,0,1,0-.93h24.53a.47.47,0,0,1,0,.93Z"/><path class="cls-6" d="M53,89H155.35a30.41,30.41,0,0,1,.38-14.14A32,32,0,0,1,157,71.24H61.62A8.6,8.6,0,0,0,53,79.82V89Zm23-7.2a2,2,0,1,1,2-2,2,2,0,0,1-2,2Zm4.23-2a2,2,0,1,1,2,2,2,2,0,0,1-2-2Zm-10.47,2a2,2,0,1,1,2-2,2,2,0,0,1-2,2Zm-4.23-2a2,2,0,1,1-2-2A2,2,0,0,1,65.56,79.82Z"/><path class="cls-7" d="M51.5,168.11V79.82A10.14,10.14,0,0,1,61.62,69.7h96a29,29,0,0,1,1.69-3.09H61.62A13.23,13.23,0,0,0,48.41,79.82v88.29a13.24,13.24,0,0,0,11.5,13.1H184.8a13.26,13.26,0,0,0,11.51-13.1V113.49l-1.17-2q-1,.33-1.92.6v56a10.14,10.14,0,0,1-10.12,10.12H61.62A10.14,10.14,0,0,1,51.5,168.11Z"/><path class="cls-7" d="M157.23,75.29a28.76,28.76,0,0,0-.18,14.28.36.36,0,0,1,0,.11,29,29,0,0,0,3,7.5v0l.45.75a.83.83,0,0,1,.08.12,28.72,28.72,0,0,0,14.7,11.85,29.47,29.47,0,0,0,6.23,1.49h.16a28.71,28.71,0,0,0,10.46-.68l.13,0c1-.25,1.91-.55,2.86-.9l0,0a.77.77,0,0,1,.93.34l1.57,2.71.06.1.09.16a4.14,4.14,0,0,0,5.54,1.5l.1-.06A4.14,4.14,0,0,0,205,109l-1.71-3a.78.78,0,0,1,.17-1l0,0a28.87,28.87,0,0,0-32.79-47.27l0,0a28.68,28.68,0,0,0-9.24,8.48l-.05.06a29.11,29.11,0,0,0-2.52,4.44.2.2,0,0,1,0,.08,28.54,28.54,0,0,0-1.59,4.46ZM163.68,77A22.11,22.11,0,0,1,174,63.56l.05,0a22.18,22.18,0,0,1,30.25,8.14l0,0A22.18,22.18,0,1,1,163.68,77Z"/><path class="cls-5" d="M165.17,77.42A20.64,20.64,0,1,0,203,72.48l0,0a20.64,20.64,0,0,0-28.16-7.58l0,0A20.58,20.58,0,0,0,165.17,77.42Z"/><path class="cls-8" d="M204.19,115.93a5.34,5.34,0,0,1-1.44.57l3,5.21a5.63,5.63,0,0,1,1.27-1h0a5.52,5.52,0,0,1,1.48-.59l-3-5.2a5.63,5.63,0,0,1-1.26,1Z"/><path class="cls-9" d="M207.77,122.06a4.12,4.12,0,0,0-1.51,5.58c.89,1.44,10.52,18.19,10.52,18.22a4.14,4.14,0,0,0,5.61,1.52h0a4.12,4.12,0,0,0,1.9-2.5,4.05,4.05,0,0,0-.38-3.09l-10.52-18.22A4.14,4.14,0,0,0,207.8,122Z"/><path class="cls-5" d="M97.09,161.74v-27a3.18,3.18,0,0,0-3.18-3.18H67.1a3.18,3.18,0,0,0-3.18,3.18v27a3.16,3.16,0,0,0,.9,2.21l0,0a3.18,3.18,0,0,0,2.25.94H93.91a3.17,3.17,0,0,0,2.25-.94,3.13,3.13,0,0,0,.93-2.24Zm-9.34-1.06Zm-14.48,0Zm12.78-11.3a7.76,7.76,0,0,1,2.25,5.46v4.52a1.88,1.88,0,0,1-.56,1.32,1.83,1.83,0,0,1-1.31.55H74.59a1.88,1.88,0,0,1-1.87-1.87v-4.52A7.78,7.78,0,0,1,86,149.34l0,0Zm-9.51-4.53Zm7.93-7.93a5.61,5.61,0,0,1,0,7.93l0,.05a5.61,5.61,0,1,1,0-8Z"/><path class="cls-6" d="M77.63,143.76Zm5.75,0a4.07,4.07,0,0,0,0-5.75,4.07,4.07,0,0,0-5.75,5.75,4.07,4.07,0,0,0,5.71,0Z"/><path class="cls-6" d="M74.36,159.59Zm10.56-9.16a6.25,6.25,0,0,0-10.66,4.41v4.52a.33.33,0,0,0,.1.23.3.3,0,0,0,.23.09H86.43a.29.29,0,0,0,.22-.09.33.33,0,0,0,.1-.23v-4.52A6.24,6.24,0,0,0,85,150.47Z"/><path class="cls-5" d="M65.89,114.25H178.83a2,2,0,0,0,1.35-.54l0,0a2,2,0,0,0,.49-.82,30.61,30.61,0,0,1-5.89-1.48A30.24,30.24,0,0,1,159.53,99.2H65.89a2,2,0,0,0-2,2v11.11a2,2,0,0,0,2,2Z"/><path class="cls-7" d="M196.31,113.28a.77.77,0,1,1,1.54,0v54.83a14.77,14.77,0,0,1-14.75,14.75H61.62a14.77,14.77,0,0,1-14.76-14.75V79.82A14.77,14.77,0,0,1,61.62,65.07h99.15a.77.77,0,0,1,0,1.54H61.62A13.23,13.23,0,0,0,48.41,79.82v88.29a13.23,13.23,0,0,0,13.21,13.21H183.1a13.25,13.25,0,0,0,13.21-13.21Z"/><path class="cls-7" d="M191.67,111.48a.78.78,0,0,1,1.55,0v56.63a10.14,10.14,0,0,1-10.12,10.12H61.62A10.14,10.14,0,0,1,51.5,168.11V79.82A10.14,10.14,0,0,1,61.62,69.7h96.52a.77.77,0,0,1,0,1.54H61.62A8.6,8.6,0,0,0,53,79.82v88.29a8.59,8.59,0,0,0,8.58,8.57H183.1a8.57,8.57,0,0,0,8.57-8.57Z"/><path class="cls-7" d="M52.27,90.58a.78.78,0,0,1,0-1.55h104a.78.78,0,0,1,0,1.55Z"/><path class="cls-9" d="M63.55,77.8a2,2,0,1,1-2,2A2,2,0,0,1,63.55,77.8Z"/><path class="cls-9" d="M69.79,77.8a2,2,0,1,1-2,2A2,2,0,0,1,69.79,77.8Z"/><path class="cls-9" d="M76,77.8a2,2,0,1,1-2,2A2,2,0,0,1,76,77.8Z"/><path class="cls-7" d="M180.8,112.19a.77.77,0,0,1,1.54,0v.09a3.47,3.47,0,0,1-1,2.48l-.05,0a3.48,3.48,0,0,1-2.43,1H65.89a3.52,3.52,0,0,1-3.52-3.51V101.17a3.53,3.53,0,0,1,3.52-3.52H160a.78.78,0,0,1,0,1.55H65.89a2,2,0,0,0-2,2v11.11a2,2,0,0,0,2,2H178.83a2,2,0,0,0,1.35-.54l0,0a2,2,0,0,0,.58-1.39Z"/><path class="cls-7" d="M67.1,130H93.91a4.75,4.75,0,0,1,4.73,4.73v27a4.75,4.75,0,0,1-4.73,4.72H67.1a4.74,4.74,0,0,1-3.34-1.38l0-.05a4.72,4.72,0,0,1-1.35-3.29v-27A4.75,4.75,0,0,1,67.1,130Zm26.81,1.55H67.1a3.18,3.18,0,0,0-3.18,3.18v27a3.16,3.16,0,0,0,.9,2.21l0,0a3.18,3.18,0,0,0,2.25.94H93.91a3.17,3.17,0,0,0,2.25-.94,3.13,3.13,0,0,0,.93-2.24v-27a3.18,3.18,0,0,0-3.18-3.18Z"/><path class="cls-7" d="M64,122.65a.46.46,0,0,1-.46-.46.45.45,0,0,1,.46-.46h4.32a.46.46,0,0,1,.46.46.47.47,0,0,1-.46.46Zm8.27,0a.47.47,0,0,1-.46-.46.46.46,0,0,1,.46-.46h40.19a.47.47,0,0,1,.47.46.47.47,0,0,1-.47.46Zm44.14,0a.47.47,0,0,1-.46-.46.46.46,0,0,1,.46-.46h34.88a.45.45,0,0,1,.46.46.46.46,0,0,1-.46.46Zm38.83,0a.46.46,0,0,1-.46-.46.45.45,0,0,1,.46-.46h25.58a.46.46,0,0,1,.46.46.47.47,0,0,1-.46.46Z"/><path class="cls-7" d="M108.18,131.28a.47.47,0,0,1,0-.93h24.53a.47.47,0,0,1,0,.93Zm28.48,0a.47.47,0,0,1,0-.93h44.11a.47.47,0,0,1,0,.93Z"/><path class="cls-7" d="M108.18,139.9a.46.46,0,0,1,0-.92H166a.46.46,0,1,1,0,.92Zm61.72,0a.46.46,0,0,1,0-.92h10.87a.46.46,0,0,1,0,.92Z"/><path class="cls-7" d="M115.43,148.53a.47.47,0,0,1,0-.93H119a.47.47,0,0,1,0,.93Zm7.47,0a.47.47,0,0,1,0-.93h57.87a.47.47,0,0,1,0,.93Z"/><path class="cls-7" d="M124.27,157.17a.47.47,0,0,1,0-.94h23.91a.47.47,0,0,1,0,.94Zm27.9,0a.47.47,0,0,1,0-.94h28.91a.47.47,0,0,1,0,.94Z"/><path class="cls-7" d="M195.22,109.8a.77.77,0,0,1,.54,1.45,30.42,30.42,0,0,1-37-13.29h0A30.39,30.39,0,0,1,169.9,56.43l0,0a30.38,30.38,0,0,1,41.48,11.15h0a30.4,30.4,0,0,1-7,38.66.77.77,0,0,1-1.08-.1.78.78,0,0,1,.1-1.09,28.86,28.86,0,0,0-32.75-47.29l0,0A28.87,28.87,0,0,0,160.1,97.18v0a28.87,28.87,0,0,0,35.11,12.59Z"/><path class="cls-7" d="M174.06,63.53a22.18,22.18,0,0,1,30.25,8.14l0,0A22.18,22.18,0,1,1,174,63.56l.05,0Zm16.39-.7a20.57,20.57,0,0,0-15.63,2l0,0A20.64,20.64,0,1,0,203,72.48l0,0A20.54,20.54,0,0,0,190.45,62.83Z"/><path class="cls-7" d="M203.29,106a.76.76,0,0,1,.28-1,.77.77,0,0,1,1.05.28l1.71,3a5.66,5.66,0,0,1-2.09,7.68l-.05,0a5.66,5.66,0,0,1-7.68-2.09l-1.69-2.93a.77.77,0,0,1,.28-1,.76.76,0,0,1,1.05.28l1.72,3a4.14,4.14,0,0,0,5.54,1.5l.1-.06A4.14,4.14,0,0,0,205,109Z"/><path class="cls-7" d="M206,122.18a.76.76,0,0,1-.28,1,.77.77,0,0,1-1.05-.28l-3.85-6.67a.78.78,0,0,1,.28-1.06.77.77,0,0,1,1,.29l3.85,6.67Zm-1.09-8.26,3.85,6.67a.77.77,0,1,0,1.33-.77l-3.85-6.67a.77.77,0,1,0-1.33.77Z"/><path class="cls-7" d="M207.8,122l0,0a4.12,4.12,0,0,0-1.51,5.58c.89,1.44,10.52,18.19,10.52,18.22a4.14,4.14,0,0,0,5.61,1.52h0a4.12,4.12,0,0,0,1.9-2.5,4.05,4.05,0,0,0-.38-3.09l-10.52-18.22A4.14,4.14,0,0,0,207.8,122Zm-.77-1.33a5.67,5.67,0,0,1,7.72,2.07l10.47,18.14a.67.67,0,0,1,.06.12,5.66,5.66,0,0,1-2,7.62l-.15.08a5.66,5.66,0,0,1-7.61-2l-.08-.12L204.92,128.4a5.65,5.65,0,0,1,2.1-7.68Z"/><path class="cls-7" d="M86.75,155.38v-.54A6.24,6.24,0,0,0,85,150.47l0,0a6.25,6.25,0,0,0-10.66,4.41v4.52a.33.33,0,0,0,.1.23h0a.3.3,0,0,0,.23.09H86.43a.29.29,0,0,0,.22-.09.33.33,0,0,0,.1-.23v-4Zm-6.24-20.1a5.61,5.61,0,0,1,4,9.57l0,.05a5.6,5.6,0,0,1-7.89-.05h0a5.61,5.61,0,0,1,4-9.57ZM83.38,138a4.07,4.07,0,0,0-5.75,5.75h0a4.07,4.07,0,0,0,5.71,0l0,0a4.07,4.07,0,0,0,0-5.75Zm4.92,17.35v4a1.91,1.91,0,0,1-.55,1.32h0a1.83,1.83,0,0,1-1.31.55H74.59a1.87,1.87,0,0,1-1.32-.55h0a1.89,1.89,0,0,1-.55-1.32v-4.52A7.78,7.78,0,0,1,86,149.34l0,0a7.76,7.76,0,0,1,2.25,5.46v.52Z"/><path class="cls-5" d="M73,102.42a5.18,5.18,0,0,0,0-.7,5.32,5.32,0,0,0-.14-.67.37.37,0,0,1,.17-.41l1.55-.9-1.06-1.83L72,98.8a.36.36,0,0,1-.44-.06,5.28,5.28,0,0,0-1.09-.84,5.08,5.08,0,0,0-1.25-.52.37.37,0,0,1-.3-.36V95.24H66.77V97a.36.36,0,0,1-.27.35,5.09,5.09,0,0,0-1.27.53,5.62,5.62,0,0,0-1.1.84.36.36,0,0,1-.44.06l-1.54-.89-1.06,1.83,1.52.89a.36.36,0,0,1,.19.42,5.32,5.32,0,0,0-.14.67,5.18,5.18,0,0,0,0,.7,5.12,5.12,0,0,0,0,.69,5.32,5.32,0,0,0,.14.67.36.36,0,0,1-.17.41l-1.54.89,1.06,1.84,1.54-.89a.36.36,0,0,1,.44.06,5.62,5.62,0,0,0,1.1.84,4.93,4.93,0,0,0,1.25.52.36.36,0,0,1,.29.36v1.78h2.12v-1.78a.36.36,0,0,1,.27-.35,5.32,5.32,0,0,0,1.28-.53,5,5,0,0,0,1.09-.84A.36.36,0,0,1,72,106l1.55.89,1.06-1.84-1.52-.87a.37.37,0,0,1-.2-.43,5.32,5.32,0,0,0,.14-.67,5.12,5.12,0,0,0,0-.69Zm-3.14-2.07a3,3,0,0,1,.85,2.07,2.9,2.9,0,0,1-.85,2.06l0,0a2.86,2.86,0,0,1-2,.83,2.92,2.92,0,1,1,2.07-5Z"/><path class="cls-5" d="M80.43,97.56a2.81,2.81,0,0,0-.62-.26.37.37,0,0,1-.3-.36v-.78h-.79v.78a.36.36,0,0,1-.27.35,2.75,2.75,0,0,0-1.19.69.35.35,0,0,1-.44.06l-.68-.39-.4.69.66.38a.36.36,0,0,1,.19.42,2.29,2.29,0,0,0-.07.34c0,.11,0,.22,0,.35s0,.24,0,.35a2.29,2.29,0,0,0,.07.34.36.36,0,0,1-.17.4l-.68.4.4.69.68-.4a.36.36,0,0,1,.44.06,2.55,2.55,0,0,0,.55.43,2.73,2.73,0,0,0,.61.26.35.35,0,0,1,.3.35v.79h.79v-.79a.38.38,0,0,1,.27-.35,2.85,2.85,0,0,0,.65-.26,3.13,3.13,0,0,0,.54-.42.37.37,0,0,1,.44-.07l.69.4.39-.69-.66-.38a.38.38,0,0,1-.19-.42,2.29,2.29,0,0,0,.07-.34,2,2,0,0,0,0-.35,1.94,1.94,0,0,0,0-.35,2.29,2.29,0,0,0-.07-.34.38.38,0,0,1,.17-.41l.68-.39-.39-.69-.69.39A.35.35,0,0,1,81,98a3.2,3.2,0,0,0-.55-.42Zm-.09,1Zm-1.22-.5a1.7,1.7,0,0,1,1.22.51,1.71,1.71,0,0,1,0,2.44l0,0a1.73,1.73,0,0,1-2.43,0,1.71,1.71,0,0,1-.5-1.22,1.71,1.71,0,0,1,1.73-1.73Z"/><path class="cls-6" d="M69.62,96.75a6.22,6.22,0,0,1,1.18.52,6.09,6.09,0,0,1,1,.77l1.35-.78,0,0a.7.7,0,0,1,.49,0,.62.62,0,0,1,.41.32l1.11,1.91a.73.73,0,0,1,.07.52.72.72,0,0,1-.32.41l-1.35.78c0,.16.06.33.09.5a6.19,6.19,0,0,1,0,1.57c0,.17,0,.34-.09.5l1.35.78a.72.72,0,0,1,.32.41.73.73,0,0,1-.07.52l-1.11,1.91a.62.62,0,0,1-.41.32.66.66,0,0,1-.51-.07l-1.36-.78a5.72,5.72,0,0,1-1,.77,6.22,6.22,0,0,1-1.18.52v1.56a.7.7,0,0,1-.2.48.68.68,0,0,1-.48.2H66.73a.68.68,0,0,1-.48-.2.64.64,0,0,1-.2-.48v-1.56a6,6,0,0,1-1.18-.52,6.16,6.16,0,0,1-1.05-.77l-1.38.8a.7.7,0,0,1-.49,0,.69.69,0,0,1-.41-.31l-1.1-1.92a.64.64,0,0,1-.07-.52.66.66,0,0,1,.31-.41L62,103.7c0-.16-.06-.33-.08-.5a5.17,5.17,0,0,1,0-1.57c0-.17,0-.34.08-.5l-1.35-.78a.66.66,0,0,1-.31-.41.64.64,0,0,1,.07-.52l1.1-1.91a.67.67,0,0,1,.41-.32.64.64,0,0,1,.52.07l1.35.78a6.51,6.51,0,0,1,1-.77,6.31,6.31,0,0,1,1.19-.52V95.19a.68.68,0,0,1,.68-.68h2.21a.68.68,0,0,1,.68.68v1.56Zm.82,1.15a5.08,5.08,0,0,0-1.25-.52.37.37,0,0,1-.3-.36V95.24H66.77V97a.36.36,0,0,1-.27.35,5.09,5.09,0,0,0-1.27.53,5.62,5.62,0,0,0-1.1.84.36.36,0,0,1-.44.06l-1.54-.89-1.06,1.83,1.52.89a.36.36,0,0,1,.19.42,5.32,5.32,0,0,0-.14.67,5.18,5.18,0,0,0,0,.7,5.12,5.12,0,0,0,0,.69,5.32,5.32,0,0,0,.14.67h0a.36.36,0,0,1-.17.41l-1.54.89,1.06,1.84,1.54-.89a.36.36,0,0,1,.44.06,5.62,5.62,0,0,0,1.1.84,4.93,4.93,0,0,0,1.25.52.36.36,0,0,1,.29.36v1.78h2.12v-1.78a.36.36,0,0,1,.27-.35,5.32,5.32,0,0,0,1.28-.53,5,5,0,0,0,1.09-.84A.36.36,0,0,1,72,106l1.55.89,1.06-1.84-1.52-.87a.37.37,0,0,1-.2-.43,5.32,5.32,0,0,0,.14-.67,5.12,5.12,0,0,0,0-.69,5.18,5.18,0,0,0,0-.7,5.32,5.32,0,0,0-.14-.67h0a.37.37,0,0,1,.17-.41l1.55-.9-1.06-1.83L72,98.8a.36.36,0,0,1-.44-.06,5.28,5.28,0,0,0-1.09-.84Zm-2.61,1.6a2.92,2.92,0,1,0,0,5.83,2.86,2.86,0,0,0,2-.83l0,0a2.9,2.9,0,0,0,.85-2.06,3,3,0,0,0-.85-2.07h0a2.87,2.87,0,0,0-2.06-.85Zm1.55,1.36a2.19,2.19,0,0,0-1.55-.64,2.23,2.23,0,0,0-1.55.64,2.21,2.21,0,0,0,0,3.11,2.23,2.23,0,0,0,1.55.64,2.19,2.19,0,0,0,1.54-.63h0a2.19,2.19,0,0,0,0-3.11Z"/><path class="cls-6" d="M80.24,96.64a3.94,3.94,0,0,1,.55.26,2.74,2.74,0,0,1,.49.35l.62-.36,0,0a.5.5,0,0,1,.36,0,.57.57,0,0,1,.32.25l.6,1a.51.51,0,0,1,0,.4.5.5,0,0,1-.25.32l-.62.36,0,.16a3.37,3.37,0,0,1,0,.44,3.25,3.25,0,0,1,0,.44l0,.16.61.36a.5.5,0,0,1,.25.32.54.54,0,0,1,0,.41l-.6,1a.53.53,0,0,1-.32.25.56.56,0,0,1-.4,0l-.62-.36a3.36,3.36,0,0,1-.49.35,3.87,3.87,0,0,1-.55.25v.71a.51.51,0,0,1-.16.38.49.49,0,0,1-.37.16H78.52a.51.51,0,0,1-.37-.16.51.51,0,0,1-.16-.38v-.71a3.32,3.32,0,0,1-.54-.25,3,3,0,0,1-.5-.35l-.62.36h0a.53.53,0,0,1-.37,0h0a.49.49,0,0,1-.29-.24l-.59-1a.55.55,0,0,1-.06-.41.53.53,0,0,1,.25-.32l.62-.35,0-.17a3.25,3.25,0,0,1,0-.44,3.37,3.37,0,0,1,0-.44l0-.16-.62-.36a.53.53,0,0,1-.25-.32.52.52,0,0,1,.06-.4l.59-1a.57.57,0,0,1,.32-.25h0a.49.49,0,0,1,.37.06l.62.36a2.74,2.74,0,0,1,.49-.35,3.94,3.94,0,0,1,.55-.26v-.71a.53.53,0,0,1,.16-.38l0,0a.52.52,0,0,1,.34-.12h1.19a.52.52,0,0,1,.37.15.53.53,0,0,1,.16.38v.71Zm.18.88a2.55,2.55,0,0,0-.61-.26.35.35,0,0,1-.3-.35v-.79h-.79v.79a.36.36,0,0,1-.27.35,2.77,2.77,0,0,0-.64.26,2.86,2.86,0,0,0-.55.42.36.36,0,0,1-.44.07l-.68-.4-.4.69.66.38a.36.36,0,0,1,.19.42,2.29,2.29,0,0,0-.07.34c0,.11,0,.23,0,.35s0,.24,0,.35a2.29,2.29,0,0,0,.07.34h0a.38.38,0,0,1-.17.41l-.68.39.4.69.68-.39a.36.36,0,0,1,.44.06,2.86,2.86,0,0,0,.55.42,2.73,2.73,0,0,0,.61.26.36.36,0,0,1,.3.35v.79h.79v-.79a.38.38,0,0,1,.27-.35,2,2,0,0,0,.64-.26,2.23,2.23,0,0,0,.55-.42.35.35,0,0,1,.44-.06l.69.39.39-.69-.66-.38a.37.37,0,0,1-.19-.42,2.29,2.29,0,0,0,.07-.34,1.94,1.94,0,0,0,0-.35,2,2,0,0,0,0-.35,2.29,2.29,0,0,0-.07-.34h0a.36.36,0,0,1,.17-.4l.68-.4-.39-.69-.69.4A.35.35,0,0,1,81,98a2.61,2.61,0,0,0-.56-.43Zm-1.3.54a1.76,1.76,0,0,0-1.23.51,1.71,1.71,0,0,0-.5,1.22A1.73,1.73,0,0,0,80.32,101l0,0a1.76,1.76,0,0,0,.51-1.23,1.74,1.74,0,0,0-.51-1.22h0a1.76,1.76,0,0,0-1.22-.51Zm.71,1a1,1,0,0,0-.71-.29,1,1,0,1,0,.69,1.73l0,0a1,1,0,0,0,0-1.42Z"/><path class="cls-7" d="M185.8,72.27a.46.46,0,0,1,.65.65l-7.82,7.83a.47.47,0,0,1-.66-.66Z"/><path class="cls-7" d="M186.27,78.51a.47.47,0,1,1,.66.66L179.1,87a.46.46,0,0,1-.65,0,.44.44,0,0,1,0-.65Z"/><path class="cls-7" d="M192.36,80.25a.47.47,0,0,1,.66.66l-7.83,7.82a.47.47,0,0,1-.66,0,.46.46,0,0,1,0-.65Z"/><path class="cls-7" d="M194.24,78.37a.46.46,0,0,1,.65,0,.47.47,0,0,1,0,.66l-.37.37a.47.47,0,0,1-.66,0,.46.46,0,0,1,0-.65Z"/><ellipse class="cls-2" cx="84.59" cy="79.8" rx="4.47" ry="3.88"/></g></g></svg>