<svg id="Layer_1" data-name="Layer 1" xmlns="http://www.w3.org/2000/svg" viewBox="0 0 260 260"><defs><style>.cls-1{fill:#e8612c;}</style></defs><title>TrackingOrange</title><path class="cls-1" d="M250.58,172l-.91-.4a107.7,107.7,0,0,1-33.91,42.57,8,8,0,0,0-8.29-2.84,7.8,7.8,0,0,0-1.88.76L159,139.52a14,14,0,0,0,2.34-21l44.19-44.48a8,8,0,1,0-.15-11.85,85.93,85.93,0,0,0-54-19.44v1A85,85,0,0,1,204.72,63a7.92,7.92,0,0,0-1.63,7.12,7.77,7.77,0,0,0,1.76,3.29l-44.2,44.48a14,14,0,0,0-21.87,3.46L35.87,61.7a8,8,0,1,0-11.06,3.37A154.54,154.54,0,0,0,9.42,122.25l1,.07A153.48,153.48,0,0,1,25.71,65.5a7.93,7.93,0,0,0,9.66-2.94l103,59.64a14,14,0,0,0-.92,8.92l-18.16,4.63A8,8,0,1,0,113.71,146a5.05,5.05,0,0,0,.55-.18,41,41,0,0,0,16.18,17.54,41.39,41.39,0,0,0,8.77,3.87L135,182a8,8,0,1,0,6.16,8.9,62.75,62.75,0,0,0,10.23.84,63.85,63.85,0,0,0,15.94-2l-.25-1a62.62,62.62,0,0,1-25.84,1.16,7.94,7.94,0,0,0-5.28-7.64l4.25-14.72a40.77,40.77,0,0,0,21.46.24l-.25-1a39.93,39.93,0,0,1-20.93-.24l7.21-25a14,14,0,0,0,10.54-1.54l46.56,72.54A8,8,0,1,0,217.17,217a7.71,7.71,0,0,0-.85-2A108.71,108.71,0,0,0,250.58,172Zm-111.1-5.68a40.44,40.44,0,0,1-8.53-3.78,39.9,39.9,0,0,1-15.75-17.05,8,8,0,0,0,4.31-8.77l18.16-4.62a14,14,0,0,0,9,9.23Z"/></svg>